<svg xmlns="http://www.w3.org/2000/svg" viewBox="0 0 720 400"><rect width="720" height="400" fill="#0d1117"/><rect x="16" y="8" width="688" height="8" fill="#30363d"/><rect x="16" y="384" width="688" height="8" fill="#30363d"/><rect x="8" y="16" width="8" height="368" fill="#30363d"/><rect x="704" y="16" width="8" height="368" fill="#30363d"/><rect x="28" y="26" width="12" height="12" fill="#ff5f57"/><rect x="48" y="26" width="12" height="12" fill="#febc2e"/><rect x="68" y="26" width="12" height="12" fill="#28c840"/><text x="360" y="36" font-family="ui-monospace, 'SF Mono', Menlo, Consolas, 'Liberation Mono', monospace" font-size="12" fill="#8b949e" text-anchor="middle">first prompt of the session</text><rect x="666" y="24" width="2" height="2" fill="#58a6ff"/><rect x="666" y="26" width="2" height="2" fill="#58a6ff"/><rect x="664" y="28" width="2" height="2" fill="#58a6ff"/><rect x="666" y="28" width="2" height="2" fill="#58a6ff"/><rect x="668" y="28" width="2" height="2" fill="#58a6ff"/><rect x="660" y="30" width="2" height="2" fill="#58a6ff"/><rect x="662" y="30" width="2" height="2" fill="#58a6ff"/><rect x="664" y="30" width="2" height="2" fill="#58a6ff"/><rect x="668" y="30" width="2" height="2" fill="#58a6ff"/><rect x="670" y="30" width="2" height="2" fill="#58a6ff"/><rect x="672" y="30" width="2" height="2" fill="#58a6ff"/><rect x="664" y="32" width="2" height="2" fill="#58a6ff"/><rect x="666" y="32" width="2" height="2" fill="#58a6ff"/><rect x="668" y="32" width="2" height="2" fill="#58a6ff"/><rect x="666" y="34" width="2" height="2" fill="#58a6ff"/><rect x="666" y="36" width="2" height="2" fill="#58a6ff"/><text x="40" y="80" font-family="ui-monospace, 'SF Mono', Menlo, Consolas, 'Liberation Mono', monospace" font-size="15"><tspan fill="#3fb950" font-weight="700">&gt; you:</tspan><tspan fill="#e6edf3"> "write a summary of this thread for the team"</tspan></text><rect x="40" y="98" width="6" height="6" fill="#58a6ff"/><rect x="40" y="234" width="6" height="6" fill="#58a6ff"/><rect x="52" y="98" width="6" height="6" fill="#58a6ff"/><rect x="52" y="234" width="6" height="6" fill="#58a6ff"/><rect x="64" y="98" width="6" height="6" fill="#58a6ff"/><rect x="64" y="234" width="6" height="6" fill="#58a6ff"/><rect x="76" y="98" width="6" height="6" fill="#58a6ff"/><rect x="76" y="234" width="6" height="6" fill="#58a6ff"/><rect x="88" y="98" width="6" height="6" fill="#58a6ff"/><rect x="88" y="234" width="6" height="6" fill="#58a6ff"/><rect x="100" y="98" width="6" height="6" fill="#58a6ff"/><rect x="100" y="234" width="6" height="6" fill="#58a6ff"/><rect x="112" y="98" width="6" height="6" fill="#58a6ff"/><rect x="112" y="234" width="6" height="6" fill="#58a6ff"/><rect x="124" y="98" width="6" height="6" fill="#58a6ff"/><rect x="124" y="234" width="6" height="6" fill="#58a6ff"/><rect x="136" y="98" width="6" height="6" fill="#58a6ff"/><rect x="136" y="234" width="6" height="6" fill="#58a6ff"/><rect x="148" y="98" width="6" height="6" fill="#58a6ff"/><rect x="148" y="234" width="6" height="6" fill="#58a6ff"/><rect x="160" y="98" width="6" height="6" fill="#58a6ff"/><rect x="160" y="234" width="6" height="6" fill="#58a6ff"/><rect x="172" y="98" width="6" height="6" fill="#58a6ff"/><rect x="172" y="234" width="6" height="6" fill="#58a6ff"/><rect x="184" y="98" width="6" height="6" fill="#58a6ff"/><rect x="184" y="234" width="6" height="6" fill="#58a6ff"/><rect x="196" y="98" width="6" height="6" fill="#58a6ff"/><rect x="196" y="234" width="6" height="6" fill="#58a6ff"/><rect x="208" y="98" width="6" height="6" fill="#58a6ff"/><rect x="208" y="234" width="6" height="6" fill="#58a6ff"/><rect x="220" y="98" width="6" height="6" fill="#58a6ff"/><rect x="220" y="234" width="6" height="6" fill="#58a6ff"/><rect x="232" y="98" width="6" height="6" fill="#58a6ff"/><rect x="232" y="234" width="6" height="6" fill="#58a6ff"/><rect x="244" y="98" width="6" height="6" fill="#58a6ff"/><rect x="244" y="234" width="6" height="6" fill="#58a6ff"/><rect x="256" y="98" width="6" height="6" fill="#58a6ff"/><rect x="256" y="234" width="6" height="6" fill="#58a6ff"/><rect x="268" y="98" width="6" height="6" fill="#58a6ff"/><rect x="268" y="234" width="6" height="6" fill="#58a6ff"/><rect x="280" y="98" width="6" height="6" fill="#58a6ff"/><rect x="280" y="234" width="6" height="6" fill="#58a6ff"/><rect x="292" y="98" width="6" height="6" fill="#58a6ff"/><rect x="292" y="234" width="6" height="6" fill="#58a6ff"/><rect x="304" y="98" width="6" height="6" fill="#58a6ff"/><rect x="304" y="234" width="6" height="6" fill="#58a6ff"/><rect x="316" y="98" width="6" height="6" fill="#58a6ff"/><rect x="316" y="234" width="6" height="6" fill="#58a6ff"/><rect x="328" y="98" width="6" height="6" fill="#58a6ff"/><rect x="328" y="234" width="6" height="6" fill="#58a6ff"/><rect x="340" y="98" width="6" height="6" fill="#58a6ff"/><rect x="340" y="234" width="6" height="6" fill="#58a6ff"/><rect x="352" y="98" width="6" height="6" fill="#58a6ff"/><rect x="352" y="234" width="6" height="6" fill="#58a6ff"/><rect x="364" y="98" width="6" height="6" fill="#58a6ff"/><rect x="364" y="234" width="6" height="6" fill="#58a6ff"/><rect x="376" y="98" width="6" height="6" fill="#58a6ff"/><rect x="376" y="234" width="6" height="6" fill="#58a6ff"/><rect x="388" y="98" width="6" height="6" fill="#58a6ff"/><rect x="388" y="234" width="6" height="6" fill="#58a6ff"/><rect x="400" y="98" width="6" height="6" fill="#58a6ff"/><rect x="400" y="234" width="6" height="6" fill="#58a6ff"/><rect x="412" y="98" width="6" height="6" fill="#58a6ff"/><rect x="412" y="234" width="6" height="6" fill="#58a6ff"/><rect x="424" y="98" width="6" height="6" fill="#58a6ff"/><rect x="424" y="234" width="6" height="6" fill="#58a6ff"/><rect x="436" y="98" width="6" height="6" fill="#58a6ff"/><rect x="436" y="234" width="6" height="6" fill="#58a6ff"/><rect x="448" y="98" width="6" height="6" fill="#58a6ff"/><rect x="448" y="234" width="6" height="6" fill="#58a6ff"/><rect x="460" y="98" width="6" height="6" fill="#58a6ff"/><rect x="460" y="234" width="6" height="6" fill="#58a6ff"/><rect x="472" y="98" width="6" height="6" fill="#58a6ff"/><rect x="472" y="234" width="6" height="6" fill="#58a6ff"/><rect x="484" y="98" width="6" height="6" fill="#58a6ff"/><rect x="484" y="234" width="6" height="6" fill="#58a6ff"/><rect x="496" y="98" width="6" height="6" fill="#58a6ff"/><rect x="496" y="234" width="6" height="6" fill="#58a6ff"/><rect x="508" y="98" width="6" height="6" fill="#58a6ff"/><rect x="508" y="234" width="6" height="6" fill="#58a6ff"/><rect x="520" y="98" width="6" height="6" fill="#58a6ff"/><rect x="520" y="234" width="6" height="6" fill="#58a6ff"/><rect x="532" y="98" width="6" height="6" fill="#58a6ff"/><rect x="532" y="234" width="6" height="6" fill="#58a6ff"/><rect x="544" y="98" width="6" height="6" fill="#58a6ff"/><rect x="544" y="234" width="6" height="6" fill="#58a6ff"/><rect x="556" y="98" width="6" height="6" fill="#58a6ff"/><rect x="556" y="234" width="6" height="6" fill="#58a6ff"/><rect x="568" y="98" width="6" height="6" fill="#58a6ff"/><rect x="568" y="234" width="6" height="6" fill="#58a6ff"/><rect x="580" y="98" width="6" height="6" fill="#58a6ff"/><rect x="580" y="234" width="6" height="6" fill="#58a6ff"/><rect x="592" y="98" width="6" height="6" fill="#58a6ff"/><rect x="592" y="234" width="6" height="6" fill="#58a6ff"/><rect x="604" y="98" width="6" height="6" fill="#58a6ff"/><rect x="604" y="234" width="6" height="6" fill="#58a6ff"/><rect x="616" y="98" width="6" height="6" fill="#58a6ff"/><rect x="616" y="234" width="6" height="6" fill="#58a6ff"/><rect x="628" y="98" width="6" height="6" fill="#58a6ff"/><rect x="628" y="234" width="6" height="6" fill="#58a6ff"/><rect x="640" y="98" width="6" height="6" fill="#58a6ff"/><rect x="640" y="234" width="6" height="6" fill="#58a6ff"/><rect x="652" y="98" width="6" height="6" fill="#58a6ff"/><rect x="652" y="234" width="6" height="6" fill="#58a6ff"/><rect x="664" y="98" width="6" height="6" fill="#58a6ff"/><rect x="664" y="234" width="6" height="6" fill="#58a6ff"/><rect x="40" y="110" width="6" height="6" fill="#58a6ff"/><rect x="674" y="110" width="6" height="6" fill="#58a6ff"/><rect x="40" y="122" width="6" height="6" fill="#58a6ff"/><rect x="674" y="122" width="6" height="6" fill="#58a6ff"/><rect x="40" y="134" width="6" height="6" fill="#58a6ff"/><rect x="674" y="134" width="6" height="6" fill="#58a6ff"/><rect x="40" y="146" width="6" height="6" fill="#58a6ff"/><rect x="674" y="146" width="6" height="6" fill="#58a6ff"/><rect x="40" y="158" width="6" height="6" fill="#58a6ff"/><rect x="674" y="158" width="6" height="6" fill="#58a6ff"/><rect x="40" y="170" width="6" height="6" fill="#58a6ff"/><rect x="674" y="170" width="6" height="6" fill="#58a6ff"/><rect x="40" y="182" width="6" height="6" fill="#58a6ff"/><rect x="674" y="182" width="6" height="6" fill="#58a6ff"/><rect x="40" y="194" width="6" height="6" fill="#58a6ff"/><rect x="674" y="194" width="6" height="6" fill="#58a6ff"/><rect x="40" y="206" width="6" height="6" fill="#58a6ff"/><rect x="674" y="206" width="6" height="6" fill="#58a6ff"/><rect x="40" y="218" width="6" height="6" fill="#58a6ff"/><rect x="674" y="218" width="6" height="6" fill="#58a6ff"/><rect x="58" y="88" width="218" height="22" fill="#0d1117"/><rect x="64" y="90" width="8" height="2" fill="#58a6ff"/><rect x="64" y="92" width="2" height="2" fill="#58a6ff"/><rect x="72" y="92" width="2" height="2" fill="#58a6ff"/><rect x="64" y="94" width="2" height="2" fill="#58a6ff"/><rect x="72" y="94" width="2" height="2" fill="#58a6ff"/><rect x="64" y="96" width="8" height="2" fill="#58a6ff"/><rect x="64" y="98" width="2" height="2" fill="#58a6ff"/><rect x="64" y="100" width="2" height="2" fill="#58a6ff"/><rect x="64" y="102" width="2" height="2" fill="#58a6ff"/><rect x="76" y="90" width="8" height="2" fill="#58a6ff"/><rect x="76" y="92" width="2" height="2" fill="#58a6ff"/><rect x="84" y="92" width="2" height="2" fill="#58a6ff"/><rect x="76" y="94" width="2" height="2" fill="#58a6ff"/><rect x="84" y="94" width="2" height="2" fill="#58a6ff"/><rect x="76" y="96" width="8" height="2" fill="#58a6ff"/><rect x="76" y="98" width="2" height="2" fill="#58a6ff"/><rect x="80" y="98" width="2" height="2" fill="#58a6ff"/><rect x="76" y="100" width="2" height="2" fill="#58a6ff"/><rect x="82" y="100" width="2" height="2" fill="#58a6ff"/><rect x="76" y="102" width="2" height="2" fill="#58a6ff"/><rect x="84" y="102" width="2" height="2" fill="#58a6ff"/><rect x="90" y="90" width="6" height="2" fill="#58a6ff"/><rect x="88" y="92" width="2" height="2" fill="#58a6ff"/><rect x="96" y="92" width="2" height="2" fill="#58a6ff"/><rect x="88" y="94" width="2" height="2" fill="#58a6ff"/><rect x="96" y="94" width="2" height="2" fill="#58a6ff"/><rect x="88" y="96" width="2" height="2" fill="#58a6ff"/><rect x="96" y="96" width="2" height="2" fill="#58a6ff"/><rect x="88" y="98" width="2" height="2" fill="#58a6ff"/><rect x="96" y="98" width="2" height="2" fill="#58a6ff"/><rect x="88" y="100" width="2" height="2" fill="#58a6ff"/><rect x="96" y="100" width="2" height="2" fill="#58a6ff"/><rect x="90" y="102" width="6" height="2" fill="#58a6ff"/><rect x="100" y="90" width="2" height="2" fill="#58a6ff"/><rect x="108" y="90" width="2" height="2" fill="#58a6ff"/><rect x="100" y="92" width="4" height="2" fill="#58a6ff"/><rect x="106" y="92" width="4" height="2" fill="#58a6ff"/><rect x="100" y="94" width="2" height="2" fill="#58a6ff"/><rect x="104" y="94" width="2" height="2" fill="#58a6ff"/><rect x="108" y="94" width="2" height="2" fill="#58a6ff"/><rect x="100" y="96" width="2" height="2" fill="#58a6ff"/><rect x="104" y="96" width="2" height="2" fill="#58a6ff"/><rect x="108" y="96" width="2" height="2" fill="#58a6ff"/><rect x="100" y="98" width="2" height="2" fill="#58a6ff"/><rect x="108" y="98" width="2" height="2" fill="#58a6ff"/><rect x="100" y="100" width="2" height="2" fill="#58a6ff"/><rect x="108" y="100" width="2" height="2" fill="#58a6ff"/><rect x="100" y="102" width="2" height="2" fill="#58a6ff"/><rect x="108" y="102" width="2" height="2" fill="#58a6ff"/><rect x="112" y="90" width="8" height="2" fill="#58a6ff"/><rect x="112" y="92" width="2" height="2" fill="#58a6ff"/><rect x="120" y="92" width="2" height="2" fill="#58a6ff"/><rect x="112" y="94" width="2" height="2" fill="#58a6ff"/><rect x="120" y="94" width="2" height="2" fill="#58a6ff"/><rect x="112" y="96" width="8" height="2" fill="#58a6ff"/><rect x="112" y="98" width="2" height="2" fill="#58a6ff"/><rect x="112" y="100" width="2" height="2" fill="#58a6ff"/><rect x="112" y="102" width="2" height="2" fill="#58a6ff"/><rect x="124" y="90" width="10" height="2" fill="#58a6ff"/><rect x="128" y="92" width="2" height="2" fill="#58a6ff"/><rect x="128" y="94" width="2" height="2" fill="#58a6ff"/><rect x="128" y="96" width="2" height="2" fill="#58a6ff"/><rect x="128" y="98" width="2" height="2" fill="#58a6ff"/><rect x="128" y="100" width="2" height="2" fill="#58a6ff"/><rect x="128" y="102" width="2" height="2" fill="#58a6ff"/><rect x="136" y="90" width="6" height="2" fill="#58a6ff"/><rect x="138" y="92" width="2" height="2" fill="#58a6ff"/><rect x="138" y="94" width="2" height="2" fill="#58a6ff"/><rect x="138" y="96" width="2" height="2" fill="#58a6ff"/><rect x="138" y="98" width="2" height="2" fill="#58a6ff"/><rect x="138" y="100" width="2" height="2" fill="#58a6ff"/><rect x="136" y="102" width="6" height="2" fill="#58a6ff"/><rect x="144" y="90" width="2" height="2" fill="#58a6ff"/><rect x="152" y="90" width="2" height="2" fill="#58a6ff"/><rect x="144" y="92" width="4" height="2" fill="#58a6ff"/><rect x="152" y="92" width="2" height="2" fill="#58a6ff"/><rect x="144" y="94" width="2" height="2" fill="#58a6ff"/><rect x="148" y="94" width="2" height="2" fill="#58a6ff"/><rect x="152" y="94" width="2" height="2" fill="#58a6ff"/><rect x="144" y="96" width="2" height="2" fill="#58a6ff"/><rect x="148" y="96" width="2" height="2" fill="#58a6ff"/><rect x="152" y="96" width="2" height="2" fill="#58a6ff"/><rect x="144" y="98" width="2" height="2" fill="#58a6ff"/><rect x="150" y="98" width="4" height="2" fill="#58a6ff"/><rect x="144" y="100" width="2" height="2" fill="#58a6ff"/><rect x="152" y="100" width="2" height="2" fill="#58a6ff"/><rect x="144" y="102" width="2" height="2" fill="#58a6ff"/><rect x="152" y="102" width="2" height="2" fill="#58a6ff"/><rect x="158" y="90" width="6" height="2" fill="#58a6ff"/><rect x="156" y="92" width="2" height="2" fill="#58a6ff"/><rect x="164" y="92" width="2" height="2" fill="#58a6ff"/><rect x="156" y="94" width="2" height="2" fill="#58a6ff"/><rect x="156" y="96" width="2" height="2" fill="#58a6ff"/><rect x="160" y="96" width="6" height="2" fill="#58a6ff"/><rect x="156" y="98" width="2" height="2" fill="#58a6ff"/><rect x="164" y="98" width="2" height="2" fill="#58a6ff"/><rect x="156" y="100" width="2" height="2" fill="#58a6ff"/><rect x="164" y="100" width="2" height="2" fill="#58a6ff"/><rect x="158" y="102" width="6" height="2" fill="#58a6ff"/><rect x="176" y="90" width="10" height="2" fill="#58a6ff"/><rect x="176" y="92" width="2" height="2" fill="#58a6ff"/><rect x="176" y="94" width="2" height="2" fill="#58a6ff"/><rect x="176" y="96" width="8" height="2" fill="#58a6ff"/><rect x="176" y="98" width="2" height="2" fill="#58a6ff"/><rect x="176" y="100" width="2" height="2" fill="#58a6ff"/><rect x="176" y="102" width="2" height="2" fill="#58a6ff"/><rect x="188" y="90" width="10" height="2" fill="#58a6ff"/><rect x="188" y="92" width="2" height="2" fill="#58a6ff"/><rect x="188" y="94" width="2" height="2" fill="#58a6ff"/><rect x="188" y="96" width="8" height="2" fill="#58a6ff"/><rect x="188" y="98" width="2" height="2" fill="#58a6ff"/><rect x="188" y="100" width="2" height="2" fill="#58a6ff"/><rect x="188" y="102" width="10" height="2" fill="#58a6ff"/><rect x="200" y="90" width="10" height="2" fill="#58a6ff"/><rect x="200" y="92" width="2" height="2" fill="#58a6ff"/><rect x="200" y="94" width="2" height="2" fill="#58a6ff"/><rect x="200" y="96" width="8" height="2" fill="#58a6ff"/><rect x="200" y="98" width="2" height="2" fill="#58a6ff"/><rect x="200" y="100" width="2" height="2" fill="#58a6ff"/><rect x="200" y="102" width="10" height="2" fill="#58a6ff"/><rect x="212" y="90" width="8" height="2" fill="#58a6ff"/><rect x="212" y="92" width="2" height="2" fill="#58a6ff"/><rect x="220" y="92" width="2" height="2" fill="#58a6ff"/><rect x="212" y="94" width="2" height="2" fill="#58a6ff"/><rect x="220" y="94" width="2" height="2" fill="#58a6ff"/><rect x="212" y="96" width="2" height="2" fill="#58a6ff"/><rect x="220" y="96" width="2" height="2" fill="#58a6ff"/><rect x="212" y="98" width="2" height="2" fill="#58a6ff"/><rect x="220" y="98" width="2" height="2" fill="#58a6ff"/><rect x="212" y="100" width="2" height="2" fill="#58a6ff"/><rect x="220" y="100" width="2" height="2" fill="#58a6ff"/><rect x="212" y="102" width="8" height="2" fill="#58a6ff"/><rect x="224" y="90" width="8" height="2" fill="#58a6ff"/><rect x="224" y="92" width="2" height="2" fill="#58a6ff"/><rect x="232" y="92" width="2" height="2" fill="#58a6ff"/><rect x="224" y="94" width="2" height="2" fill="#58a6ff"/><rect x="232" y="94" width="2" height="2" fill="#58a6ff"/><rect x="224" y="96" width="8" height="2" fill="#58a6ff"/><rect x="224" y="98" width="2" height="2" fill="#58a6ff"/><rect x="232" y="98" width="2" height="2" fill="#58a6ff"/><rect x="224" y="100" width="2" height="2" fill="#58a6ff"/><rect x="232" y="100" width="2" height="2" fill="#58a6ff"/><rect x="224" y="102" width="8" height="2" fill="#58a6ff"/><rect x="238" y="90" width="6" height="2" fill="#58a6ff"/><rect x="236" y="92" width="2" height="2" fill="#58a6ff"/><rect x="244" y="92" width="2" height="2" fill="#58a6ff"/><rect x="236" y="94" width="2" height="2" fill="#58a6ff"/><rect x="244" y="94" width="2" height="2" fill="#58a6ff"/><rect x="236" y="96" width="10" height="2" fill="#58a6ff"/><rect x="236" y="98" width="2" height="2" fill="#58a6ff"/><rect x="244" y="98" width="2" height="2" fill="#58a6ff"/><rect x="236" y="100" width="2" height="2" fill="#58a6ff"/><rect x="244" y="100" width="2" height="2" fill="#58a6ff"/><rect x="236" y="102" width="2" height="2" fill="#58a6ff"/><rect x="244" y="102" width="2" height="2" fill="#58a6ff"/><rect x="250" y="90" width="6" height="2" fill="#58a6ff"/><rect x="248" y="92" width="2" height="2" fill="#58a6ff"/><rect x="256" y="92" width="2" height="2" fill="#58a6ff"/><rect x="248" y="94" width="2" height="2" fill="#58a6ff"/><rect x="248" y="96" width="2" height="2" fill="#58a6ff"/><rect x="248" y="98" width="2" height="2" fill="#58a6ff"/><rect x="248" y="100" width="2" height="2" fill="#58a6ff"/><rect x="256" y="100" width="2" height="2" fill="#58a6ff"/><rect x="250" y="102" width="6" height="2" fill="#58a6ff"/><rect x="260" y="90" width="2" height="2" fill="#58a6ff"/><rect x="268" y="90" width="2" height="2" fill="#58a6ff"/><rect x="260" y="92" width="2" height="2" fill="#58a6ff"/><rect x="266" y="92" width="2" height="2" fill="#58a6ff"/><rect x="260" y="94" width="2" height="2" fill="#58a6ff"/><rect x="264" y="94" width="2" height="2" fill="#58a6ff"/><rect x="260" y="96" width="4" height="2" fill="#58a6ff"/><rect x="260" y="98" width="2" height="2" fill="#58a6ff"/><rect x="264" y="98" width="2" height="2" fill="#58a6ff"/><rect x="260" y="100" width="2" height="2" fill="#58a6ff"/><rect x="266" y="100" width="2" height="2" fill="#58a6ff"/><rect x="260" y="102" width="2" height="2" fill="#58a6ff"/><rect x="268" y="102" width="2" height="2" fill="#58a6ff"/><rect x="66" y="126" width="16" height="16" fill="#58a6ff"/><rect x="86" y="126" width="16" height="16" fill="#58a6ff"/><rect x="106" y="126" width="16" height="16" fill="#58a6ff"/><rect x="126" y="126" width="16" height="16" fill="#58a6ff"/><rect x="146" y="126" width="16" height="16" fill="#58a6ff"/><rect x="166" y="126" width="16" height="16" fill="#58a6ff"/><rect x="186" y="126" width="16" height="16" fill="#21262d"/><rect x="206" y="126" width="16" height="16" fill="#21262d"/><rect x="226" y="126" width="16" height="16" fill="#21262d"/><rect x="246" y="126" width="16" height="16" fill="#21262d"/><rect x="279" y="123" width="9" height="3" fill="#e6edf3"/><rect x="276" y="126" width="3" height="3" fill="#e6edf3"/><rect x="276" y="129" width="3" height="3" fill="#e6edf3"/><rect x="276" y="132" width="12" height="3" fill="#e6edf3"/><rect x="276" y="135" width="3" height="3" fill="#e6edf3"/><rect x="288" y="135" width="3" height="3" fill="#e6edf3"/><rect x="276" y="138" width="3" height="3" fill="#e6edf3"/><rect x="288" y="138" width="3" height="3" fill="#e6edf3"/><rect x="279" y="141" width="9" height="3" fill="#e6edf3"/><rect x="306" y="123" width="3" height="3" fill="#e6edf3"/><rect x="306" y="126" width="3" height="3" fill="#e6edf3"/><rect x="303" y="129" width="3" height="3" fill="#e6edf3"/><rect x="300" y="132" width="3" height="3" fill="#e6edf3"/><rect x="297" y="135" width="3" height="3" fill="#e6edf3"/><rect x="294" y="138" width="3" height="3" fill="#e6edf3"/><rect x="294" y="141" width="3" height="3" fill="#e6edf3"/><rect x="318" y="123" width="3" height="3" fill="#e6edf3"/><rect x="315" y="126" width="6" height="3" fill="#e6edf3"/><rect x="318" y="129" width="3" height="3" fill="#e6edf3"/><rect x="318" y="132" width="3" height="3" fill="#e6edf3"/><rect x="318" y="135" width="3" height="3" fill="#e6edf3"/><rect x="318" y="138" width="3" height="3" fill="#e6edf3"/><rect x="312" y="141" width="15" height="3" fill="#e6edf3"/><rect x="333" y="123" width="9" height="3" fill="#e6edf3"/><rect x="330" y="126" width="3" height="3" fill="#e6edf3"/><rect x="342" y="126" width="3" height="3" fill="#e6edf3"/><rect x="330" y="129" width="3" height="3" fill="#e6edf3"/><rect x="339" y="129" width="6" height="3" fill="#e6edf3"/><rect x="330" y="132" width="3" height="3" fill="#e6edf3"/><rect x="336" y="132" width="3" height="3" fill="#e6edf3"/><rect x="342" y="132" width="3" height="3" fill="#e6edf3"/><rect x="330" y="135" width="6" height="3" fill="#e6edf3"/><rect x="342" y="135" width="3" height="3" fill="#e6edf3"/><rect x="330" y="138" width="3" height="3" fill="#e6edf3"/><rect x="342" y="138" width="3" height="3" fill="#e6edf3"/><rect x="333" y="141" width="9" height="3" fill="#e6edf3"/><text x="359" y="139" font-family="ui-monospace, 'SF Mono', Menlo, Consolas, 'Liberation Mono', monospace" font-size="13" fill="#8b949e">— goal is clear, context is thin</text><text x="66" y="182" font-family="ui-monospace, 'SF Mono', Menlo, Consolas, 'Liberation Mono', monospace" font-size="15"><tspan fill="#3fb950" font-weight="700">+ </tspan><tspan fill="#e6edf3">named the deliverable and the artifact</tspan></text><text x="66" y="212" font-family="ui-monospace, 'SF Mono', Menlo, Consolas, 'Liberation Mono', monospace" font-size="15"><tspan fill="#d29922" font-weight="700">→ </tspan><tspan fill="#e6edf3">say who it's for and why: "for the engineer joining monday"</tspan></text><text x="40" y="278" font-family="ui-monospace, 'SF Mono', Menlo, Consolas, 'Liberation Mono', monospace" font-size="15"><tspan fill="#58a6ff" font-weight="700">ai:</tspan><tspan fill="#e6edf3"> sure — here's the summary for the team:</tspan></text><text x="68" y="302" font-family="ui-monospace, 'SF Mono', Menlo, Consolas, 'Liberation Mono', monospace" font-size="14" fill="#8b949e">* decided: ship on tuesday   * still open: pricing tiers   * next: …</text><rect x="48" y="336" width="2" height="2" fill="#d29922"/><rect x="48" y="338" width="2" height="2" fill="#d29922"/><rect x="46" y="340" width="2" height="2" fill="#d29922"/><rect x="48" y="340" width="2" height="2" fill="#d29922"/><rect x="50" y="340" width="2" height="2" fill="#d29922"/><rect x="42" y="342" width="2" height="2" fill="#d29922"/><rect x="44" y="342" width="2" height="2" fill="#d29922"/><rect x="46" y="342" width="2" height="2" fill="#d29922"/><rect x="50" y="342" width="2" height="2" fill="#d29922"/><rect x="52" y="342" width="2" height="2" fill="#d29922"/><rect x="54" y="342" width="2" height="2" fill="#d29922"/><rect x="46" y="344" width="2" height="2" fill="#d29922"/><rect x="48" y="344" width="2" height="2" fill="#d29922"/><rect x="50" y="344" width="2" height="2" fill="#d29922"/><rect x="48" y="346" width="2" height="2" fill="#d29922"/><rect x="48" y="348" width="2" height="2" fill="#d29922"/><text x="66" y="348" font-family="ui-monospace, 'SF Mono', Menlo, Consolas, 'Liberation Mono', monospace" font-size="13" fill="#8b949e" font-style="italic">one block per session — next session it starts from what you already fixed.</text></svg>